<svg width="426" height="364" viewBox="0 0 426 364" fill="none" xmlns="http://www.w3.org/2000/svg">
<path d="M0.11703 145.288C15.531 135.69 30.398 124.221 44.395 111.796C82.656 77.8347 110.871 39.8908 120.914 25.0267L137.832 0L155.867 24.2564C175.219 50.2812 205.293 88.5722 238.539 120.179C255.16 135.982 272.051 149.61 288.301 159.179C304.742 168.858 318.965 173.461 330.664 173.461H425.609C424.173 187.746 421.252 201.847 416.891 215.543H330.664C308.234 215.543 286.277 206.998 266.43 195.31C246.39 183.509 226.883 167.547 208.926 150.477C182.273 125.133 157.886 96.2277 139.008 72.1449C123.547 91.967 100.746 118.391 72.938 143.076C52.968 160.802 29.562 178.396 3.73403 191.811C1.24312 178.818 -0.00701989 165.623 2.96475e-05 152.399C2.96475e-05 150.018 0.0390302 147.645 0.11703 145.288Z" fill="#9E91EC"/>
<path d="M15.937 233.855C26.77 228.806 37.215 223.264 47.125 217.472C85.703 194.939 114.129 167.701 123.434 158.391L137.957 143.852L153.172 157.697C156.012 160.28 159.055 163.089 162.277 166.064C180.75 183.106 205.157 205.628 231.836 223.363C263.84 244.637 295.719 259.01 322.508 259.01H398.113C389.124 274.243 378.221 288.308 365.66 300.875H322.508C282.371 300.875 241.5 280.357 207.902 258.022C184.855 242.701 163.617 223.724 146.336 208.285C143.726 205.95 141.207 203.7 138.786 201.553L138.516 201.784C122.687 215.387 98.473 236.2 68.953 253.449C58.707 259.428 47.695 265.328 36.063 270.817C28.1061 259.191 21.3634 246.808 15.937 233.855Z" fill="#91AAEC"/>
<path d="M62.6221 304.161C94.2421 288.204 117.105 272.137 125.176 265.733L138.039 255.52L151.375 265.143C170.477 278.93 198.664 298.92 230.031 315.462C256.625 329.487 283.738 340.065 308.324 343.162C285.099 354.421 259.946 361.434 234.117 363.852C225.699 360.111 217.527 356.089 209.703 351.962C182.332 337.529 157.5 320.874 138.809 307.677C128.839 314.561 115.172 323.268 98.7031 332.341C85.6655 324.243 73.5676 314.795 62.6211 304.162L62.6221 304.161Z" fill="#91D6EC"/>
<path d="M368.309 130.21L307.277 48.4961L273.152 94.1934C286.551 106.22 299.082 115.67 310.176 122.056C323.199 129.559 329.691 130.21 330.664 130.21H368.309Z" fill="#7A56A7"/>
</svg>
